<svg xmlns="http://www.w3.org/2000/svg" width="49.65" height="54.04"><style>.st0{fill:#fff}</style><path class="st0" d="M48.67 46.9c-.66-2.16-4.21-3.98-7.64-5.73-.9-.46-1.78-.91-2.53-1.33a1 1 0 00-1.36.38.99.99 0 00.38 1.36c.77.44 1.67.9 2.6 1.37 2.63 1.34 6.22 3.18 6.63 4.53.86 2.81.9 3.22.9 3.97 0 .28-.05.4-.08.43-.2.19-1.16.16-1.79.14-.31-.01-.63-.02-.96-.02H4.1c-.74.02-1.75.04-2-.2-.06-.06-.09-.2-.1-.38.08-.37.37-1.7.96-3.97.46-1.75 4.91-4.28 13.18-7.51.2-.06 2.01-.7 3.01-2.03a.985.985 0 00-.2-1.4c-.44-.33-1.06-.24-1.4.2-.53.71-1.66 1.21-2.09 1.35-6.67 2.6-13.61 5.69-14.43 8.88-.72 2.77-1 4.12-1.01 4.18-.02.06-.02.13-.02.2 0 .8.23 1.44.7 1.9.84.83 2.1.81 3.44.78h40.68c.3 0 .6.01.89.02.29.01.57.02.85.02.93 0 1.77-.12 2.4-.72.46-.44.69-1.07.69-1.87 0-1.04-.1-1.63-.98-4.55"/><path class="st0" d="M6.61 19.31C6.96 18.6 8.12 18 8.82 18h2.97c.03.21.03.58.03.84v8.31c0 .26 0 .64-.03.85H8.82c-.7 0-1.86-.61-2.2-1.29a8.97 8.97 0 01-.01-7.4M24.82 2c7.56 0 13.72 6.23 13.98 14h-.98c-.46 0-.85.11-1.16.33-.83-4.22-3.41-10.67-11.51-10.67-8.11 0-10.89 6.7-11.84 10.97-.03-.04-.05-.07-.09-.11-.35-.35-.82-.52-1.4-.52h-.97c.25-7.77 6.42-14 13.97-14m18.2 17.28a8.97 8.97 0 01.01 7.4c-.34.71-1.5 1.32-2.21 1.32l-2.97-.01c-.03-.21-.03-.58-.03-.84v-8.31c0-.26 0-.64.03-.84h2.97c.71 0 1.87.6 2.2 1.28m-8.01 5.77c-.14.26-.4.42-.5.44-.36.05-.67.3-.8.64-.51 1.4-1.14 2.39-1.81 3.43-.2.31-.41.64-.61.97-.61 1-1.16 1.67-1.76 2.14-2.59 2.14-4.42 1.88-4.48 1.87-.06-.01-.12-.02-.19-.02-2.28 0-4.46-1.76-4.55-1.83-.68-.47-1.29-1.17-1.92-2.2-.2-.32-.39-.62-.58-.92-.69-1.09-1.29-2.03-1.8-3.45-.13-.36-.52-.62-.9-.66-.1 0-.37-.16-.51-.42a.971.971 0 00-.78-.5V21h.01c.54 0 .95-.31.97-.85 0-.03.06-3.1 1.42-6.26 1.76-4.09 4.69-6.16 8.82-6.16 9.97 0 10 11.71 10 12.21.01.55.78.99.78.99v3.62c-.33.03-.64.19-.81.5m-2.52 15.84l-4.87 1.16a1.02 1.02 0 01-1.2-.75c-.13-.53.2-1.07.74-1.2l4.86-1.16c.08-.01.16-.02.23-.02.46 0 .87.32.98.77.13.53-.21 1.07-.74 1.2M8.82 30h3c.58 0 1.05-.18 1.4-.53.61-.61.6-1.48.6-2.32v-.1c.16.1.33.2.5.26.54 1.35 1.16 2.32 1.81 3.33.18.29.36.58.55.89.78 1.28 1.57 2.17 2.42 2.76.11.09 2.71 2.2 5.69 2.23.11.02.28.04.52.04.99 0 3.02-.31 5.47-2.33.77-.6 1.48-1.45 2.22-2.66.19-.32.39-.63.59-.93.62-.98 1.27-1.99 1.82-3.35.14-.07.28-.15.41-.24v.1c0 .84 0 1.71.6 2.32.12.11.25.2.4.28-.07 2.36-.66 6.92-2.86 7.71a2.994 2.994 0 00-2.4-.46l-4.86 1.16c-1.61.38-2.61 2-2.23 3.61.32 1.36 1.53 2.3 2.92 2.3.24 0 .47-.02.69-.08l4.87-1.16c1.61-.38 2.61-2 2.22-3.61 0-.03-.02-.06-.03-.09 3.09-1.59 3.6-6.83 3.67-9.13h2.01c1.36 0 3.3-.99 4.02-2.47 1.31-2.88 1.31-6.19-.01-9.1-.71-1.46-2.65-2.43-4.01-2.43h-.02c-.26-8.87-7.32-16-15.98-16S9.11 7.13 8.85 16h-.03c-1.36 0-3.3.98-4.02 2.46-1.31 2.88-1.31 6.19.01 9.1C5.52 29.02 7.46 30 8.82 30"/></svg>