<svg xmlns="http://www.w3.org/2000/svg" width="26.88" height="26.87"><path d="M19.18 8.48l-.14-.12c-.02-.01-.03-.02-.04-.03l-.84-.7 1.25-.46 1.25-.46-.23 1.31-.22 1.32-.95-.79-.03-.03zm6.35 17.04H1.6l4.36-13.36 4.35 7.05c.19.32.61.42.93.22a.86.86 0 00.2-.18l7.45-9.26 1.31 1.09c.1.1.22.16.36.18.36.07.71-.18.78-.55l.42-2.46.43-2.46c.02-.11.01-.23-.03-.35a.678.678 0 00-.87-.4l-2.34.86-2.35.86a.676.676 0 00-.2 1.15l1.46 1.22-6.9 8.56-4.61-7.48a.69.69 0 00-.36-.29.676.676 0 00-.85.43l-3.8 11.61V1.34h24.19zM26.2 0H.67C.3 0 0 .3 0 .67V26.2c0 .37.3.68.67.68H26.2c.37 0 .68-.31.68-.68V.67c0-.37-.31-.67-.68-.67" fill="#fff"/></svg>