<svg xmlns="http://www.w3.org/2000/svg" width="46.17" height="54"><path d="M39.94 26.1c-.39-.58-.39-1.63 0-2.21l5.78-8.68c.5-.75.59-1.55.24-2.2C45.62 12.37 44.9 12 44 12H32c-.56 0-1 .44-1 1 0 .55.44 1 1 1h12.12c-.02.03-.04.07-.07.1l-5.78 8.68c-.83 1.24-.83 3.19 0 4.43l5.78 8.68c.03.03.05.07.07.1-.04 0-.08.01-.12.01H23l4-3c1.14-.86 2-2.58 2-4V6c0-1.66-1.35-3-3-3H2V1c0-.56-.45-1-1-1-.56 0-1 .44-1 1v52c0 .55.44 1 1 1 .55 0 1-.45 1-1V31h20c.55 0 1-.45 1-1 0-.56-.45-1-1-1H2V5h24c.55 0 1 .44 1 1v23c0 .78-.58 1.92-1.2 2.4L20.99 35c-1.07.8-1.02 1.57-.89 1.96.13.39.55 1.04 1.9 1.04h22c.9 0 1.62-.38 1.96-1.02.35-.65.26-1.45-.24-2.2z" fill="#fff"/></svg>