<svg xmlns="http://www.w3.org/2000/svg" width="54" height="42"><style>.st0{fill:#fff}</style><path class="st0" d="M52 37c0 1.65-1.35 3-3 3H5c-1.66 0-3-1.35-3-3V5c0-1.66 1.34-3 3-3h44c1.65 0 3 1.34 3 3zM49 0H5C2.24 0 0 2.24 0 5v32c0 2.75 2.24 5 5 5h44c2.75 0 5-2.25 5-5V5c0-2.76-2.25-5-5-5"/><path class="st0" d="M48.34 4.24L29.37 20.62c-1.29 1.12-3.46 1.11-4.75 0L5.65 4.24a.998.998 0 00-1.41.1.998.998 0 00.1 1.41l18.97 16.39c1.02.87 2.35 1.31 3.68 1.31 1.34 0 2.67-.44 3.69-1.31L49.65 5.75c.42-.36.46-.99.1-1.41a.998.998 0 00-1.41-.1"/></svg>