<svg xmlns="http://www.w3.org/2000/svg" width="52" height="54"><style>.st0{fill:#fff}</style><path class="st0" d="M25.94 2C33.25 2 39.2 7.9 39.2 15.16c0 1.95-.43 3.85-1.31 5.67-3.59 8.25-9.77 16.06-11.9 18.62-2.15-2.56-8.42-10.38-12.03-18.65-.85-1.76-1.27-3.65-1.27-5.64C12.69 7.9 18.63 2 25.94 2m-.69 39.66c.19.21.46.34.75.34.28.01.56-.13.75-.35.34-.39 8.47-9.7 12.96-19.99.99-2.06 1.49-4.25 1.49-6.5C41.2 6.8 34.36 0 25.94 0c-8.41 0-15.25 6.8-15.25 15.16 0 2.29.49 4.48 1.45 6.47 4.5 10.32 12.76 19.64 13.11 20.03"/><path class="st0" d="M25.94 9.76c2.89 0 5.24 2.34 5.24 5.23 0 2.89-2.35 5.24-5.24 5.24-2.88 0-5.23-2.35-5.23-5.24s2.35-5.23 5.23-5.23m0 12.47c3.99 0 7.24-3.25 7.24-7.24s-3.25-7.23-7.24-7.23-7.23 3.24-7.23 7.23 3.24 7.24 7.23 7.24m26.02 30.51l-6-23c-.08-.3-.3-.56-.59-.67l-5-2-.75 1.85 4.53 1.82 5.32 20.38-10.03-5.02a.964.964 0 00-.86-.01l-12.59 5.8-12.58-5.8a.964.964 0 00-.86.01L2.52 51.12l5.32-20.38 4.53-1.82-.75-1.85-5 2c-.29.11-.51.37-.59.67l-6 23c-.09.38.03.78.33 1.03.31.25.73.29 1.08.12l11.57-5.79 12.57 5.8c.26.13.57.13.83 0l12.57-5.8 11.57 5.79c.14.07.29.1.44.1.23 0 .45-.07.63-.22.31-.25.44-.65.34-1.03"/></svg>